<?xml version="1.0" encoding="UTF-8" standalone="no"?>
<svg
   xmlns:dc="http://purl.org/dc/elements/1.1/"
   xmlns:cc="http://creativecommons.org/ns#"
   xmlns:rdf="http://www.w3.org/1999/02/22-rdf-syntax-ns#"
   xmlns:svg="http://www.w3.org/2000/svg"
   xmlns="http://www.w3.org/2000/svg"
   xmlns:sodipodi="http://sodipodi.sourceforge.net/DTD/sodipodi-0.dtd"
   xmlns:inkscape="http://www.inkscape.org/namespaces/inkscape"
   version="1.0"
   width="512"
   height="512"
   viewBox="0 0 383.99999 384.00001"
   preserveAspectRatio="xMidYMid meet"
   id="svg120"
   sodipodi:docname="LogoPrimario-1.svg"
   inkscape:version="1.0.2-2 (e86c870879, 2021-01-15)">
  <metadata
     id="metadata126">
    <rdf:RDF>
      <cc:Work
         rdf:about="">
        <dc:format>image/svg+xml</dc:format>
        <dc:type
           rdf:resource="http://purl.org/dc/dcmitype/StillImage" />
        <dc:title></dc:title>
      </cc:Work>
    </rdf:RDF>
  </metadata>
  <defs
     id="defs124" />
  <sodipodi:namedview
     pagecolor="#ffffff"
     bordercolor="#666666"
     borderopacity="1"
     objecttolerance="10"
     gridtolerance="10"
     guidetolerance="10"
     inkscape:pageopacity="0"
     inkscape:pageshadow="2"
     inkscape:window-width="2560"
     inkscape:window-height="1377"
     id="namedview122"
     showgrid="false"
     units="px"
     inkscape:zoom="0.94875"
     inkscape:cx="666.66667"
     inkscape:cy="346.66667"
     inkscape:window-x="-8"
     inkscape:window-y="-8"
     inkscape:window-maximized="1"
     inkscape:current-layer="g118" />
  <g
     transform="matrix(0.1,0,0,-0.1,0,520)"
     fill="#000000"
     stroke="none"
     id="g118">
    <g
       id="g983"
       transform="matrix(1.121823,0,0,1.118592,0,313.13285)">
      <path
         d="m 1727,4363 c -3,-4 -6,-57 -8,-118 l -4,-110 32,-3 31,-3 7,63 c 4,35 5,88 3,118 -3,51 -5,55 -30,58 -14,2 -28,0 -31,-5 z"
         id="path2" />
      <path
         d="m 1906,4352 c -2,-4 6,-58 19,-121 21,-106 33,-130 62,-131 6,0 18,-3 27,-6 11,-4 34,23 86,102 61,94 68,110 53,116 -44,17 -58,9 -96,-57 -21,-36 -42,-65 -46,-65 -10,0 -16,24 -27,103 -5,39 -11,50 -31,58 -30,11 -40,11 -47,1 z"
         id="path4" />
      <path
         d="m 1398,4341 c -26,-4 -49,-9 -52,-12 -5,-5 20,-193 29,-218 7,-19 117,-6 173,21 49,23 65,47 65,98 0,101 -61,132 -215,111 z m 126,-67 c 21,-21 20,-67 -2,-87 -10,-9 -33,-18 -52,-19 -34,-3 -34,-2 -43,46 -4,27 -6,55 -3,63 7,18 81,17 100,-3 z"
         id="path6" />
      <path
         d="m 1177,4284 -28,-15 7,-80 c 4,-52 3,-79 -4,-79 -5,0 -34,27 -62,60 -43,49 -57,59 -74,54 -51,-16 -48,-23 36,-116 75,-82 85,-89 112,-84 53,11 56,18 56,152 0,68 -3,124 -7,124 -5,-1 -21,-8 -36,-16 z"
         id="path8" />
      <path
         d="m 2244,4174 c -50,-108 -52,-119 -25,-134 29,-15 30,-14 51,34 30,70 43,69 39,-4 -4,-55 -1,-64 17,-77 20,-13 25,-11 69,27 26,23 49,39 52,36 3,-2 -5,-26 -16,-52 -12,-26 -20,-48 -19,-49 15,-12 51,-25 55,-21 15,15 93,201 89,212 -3,7 -19,15 -36,19 -27,6 -37,1 -89,-44 -32,-28 -61,-48 -65,-44 -3,3 -6,41 -6,84 0,77 -1,79 -30,94 -16,8 -32,15 -35,15 -3,0 -26,-43 -51,-96 z"
         id="path10" />
      <path
         d="m 767,4084 c -97,-64 -110,-81 -82,-104 11,-9 20,-8 44,9 16,12 32,21 35,21 3,0 27,-31 52,-70 26,-38 52,-70 59,-70 7,0 20,9 29,19 17,19 16,22 -29,92 l -48,72 24,18 c 13,10 27,19 32,19 12,0 8,37 -6,48 -10,9 -37,-4 -110,-54 z"
         id="path12" />
      <path
         d="m 545,3906 c -60,-26 -104,-99 -91,-150 12,-48 69,-50 133,-5 44,31 73,37 73,16 0,-20 -43,-57 -66,-57 -11,0 -31,-11 -44,-25 l -23,-24 28,-13 c 23,-10 33,-9 72,12 79,42 118,126 78,170 -27,30 -66,24 -125,-16 -34,-23 -56,-32 -62,-26 -16,16 10,52 43,59 26,5 69,47 58,57 -14,12 -48,13 -74,2 z"
         id="path14" />
      <path
         d="m 2775,3892 c -88,-55 -83,-165 9,-235 57,-44 85,-44 125,-3 l 34,35 -28,36 c -33,45 -52,53 -73,32 -14,-15 -14,-18 3,-37 10,-11 15,-23 12,-27 -13,-12 -56,16 -72,47 -14,27 -14,33 -1,59 16,31 34,41 71,41 26,0 65,-42 65,-71 0,-19 38,-51 52,-43 4,3 8,19 8,35 0,99 -128,180 -205,131 z"
         id="path16" />
      <path
         d="m 3003,3592 c -51,-31 -92,-62 -93,-69 0,-15 99,-173 109,-173 4,0 15,6 24,13 16,11 15,17 -18,69 -20,32 -34,62 -30,68 13,21 32,8 60,-40 16,-27 32,-50 35,-50 3,0 15,6 25,14 18,13 17,15 -14,65 -29,48 -33,71 -11,71 5,0 25,-25 45,-55 32,-50 37,-54 56,-45 13,8 18,17 14,28 -9,25 -98,162 -104,162 -3,-1 -47,-26 -98,-58 z"
         id="path26" />
      <path
         d="m 214,3488 c -9,-18 -30,-57 -46,-87 -16,-29 -28,-54 -26,-56 12,-9 199,-105 206,-105 4,0 28,40 52,89 37,76 41,92 31,105 -21,25 -29,20 -61,-44 -28,-55 -46,-71 -63,-54 -3,4 7,33 23,65 29,56 29,59 11,69 -28,15 -28,15 -56,-39 -26,-53 -39,-66 -55,-56 -6,4 3,30 20,66 17,33 28,64 25,69 -13,21 -45,9 -61,-22 z"
         id="path30" />
      <path
         d="m 821,3346 c -57,-83 -65,-201 -19,-293 36,-73 91,-113 245,-177 188,-80 266,-122 342,-183 36,-28 68,-50 72,-47 4,2 13,30 20,62 26,126 -14,255 -106,347 -31,31 -139,105 -282,193 -127,78 -234,142 -237,142 -3,0 -19,-20 -35,-44 z"
         id="path48" />
      <path
         d="m 3163,3313 c -104,-37 -113,-45 -93,-83 10,-18 11,-18 67,1 31,10 58,17 61,15 2,-3 -15,-36 -37,-74 -44,-76 -48,-89 -28,-116 12,-16 19,-15 112,19 55,20 103,39 108,44 4,4 3,20 -2,34 l -10,26 -57,-19 c -31,-11 -59,-20 -61,-20 -10,0 1,25 37,88 36,62 39,73 29,96 -7,14 -15,26 -18,25 -3,0 -52,-16 -108,-36 z"
         id="path50" />
      <path
         d="m 639,3165 c -158,-253 -53,-571 232,-705 36,-16 105,-42 154,-56 49,-14 101,-32 115,-39 38,-20 81,-66 97,-103 12,-30 17,-33 41,-27 80,19 140,91 149,178 15,142 -81,230 -382,357 -170,71 -208,93 -263,147 -62,61 -90,119 -106,217 l -12,71 z"
         id="path52" />
      <path
         d="m 1387,3184 c -3,-4 17,-28 46,-54 96,-88 147,-206 147,-340 0,-36 -12,-128 -26,-205 -22,-120 -24,-147 -14,-184 26,-97 124,-156 281,-168 l 79,-6 35,-72 c 83,-172 279,-271 473,-237 188,32 368,202 442,418 31,88 20,98 -23,22 -148,-264 -439,-353 -701,-215 -129,67 -310,287 -290,351 11,36 36,56 69,56 36,0 55,-18 137,-130 61,-84 143,-162 200,-191 33,-17 39,-18 44,-5 9,22 -13,178 -38,271 -102,383 -325,620 -641,680 -80,15 -208,20 -220,9 z m 554,-401 c 8,-8 12,-30 10,-50 -3,-39 -111,30 -111,71 0,13 5,13 46,1 26,-8 50,-18 55,-22 z"
         id="path54" />
      <path
         d="m 172,3150 c -56,-9 -104,-19 -107,-21 -2,-3 -7,-23 -10,-44 -5,-39 -4,-41 47,-80 28,-22 72,-55 96,-74 36,-29 45,-32 53,-20 13,21 11,50 -5,68 -23,26 0,110 31,118 22,5 43,37 43,64 0,12 -24,10 -148,-11 z m 18,-84 c 0,-34 -15,-40 -45,-19 -30,22 -31,30 -2,36 43,8 47,7 47,-17 z"
         id="path56" />
      <path
         d="m 3255,2958 c -44,-5 -84,-14 -89,-18 -5,-5 -3,-49 4,-104 l 13,-96 h 28 c 25,0 29,3 25,23 -16,75 -16,115 -2,120 20,8 27,-5 35,-67 5,-46 8,-51 31,-51 24,0 25,3 25,60 0,71 17,84 28,23 5,-24 11,-53 13,-65 4,-24 19,-29 41,-15 10,6 11,27 3,93 -6,46 -13,90 -15,97 -5,13 -25,14 -140,0 z"
         id="path58" />
      <path
         d="m 7,2833 c -4,-3 -7,-19 -7,-34 0,-30 7,-32 163,-45 l 77,-7 v 27 c 0,14 1,29 2,34 2,12 -224,37 -235,25 z"
         id="path60" />
      <path
         d="m 180,2601 v -68 l -52,-7 c -29,-3 -70,-6 -90,-6 -36,0 -38,-2 -38,-30 0,-18 6,-33 15,-37 9,-3 64,-1 123,3 l 107,9 -3,90 c -3,68 -8,93 -20,103 -34,26 -42,15 -42,-57 z"
         id="path62" />
      <path
         d="m 3184,2625 c -8,-32 1,-42 41,-47 24,-2 31,-8 33,-28 2,-22 -4,-29 -43,-48 -41,-20 -45,-25 -45,-57 0,-19 2,-35 5,-35 3,0 24,9 45,20 l 40,20 20,-20 c 15,-15 31,-20 57,-18 53,4 72,36 80,135 l 6,81 -69,6 c -38,4 -90,9 -116,12 -45,4 -48,3 -54,-21 z m 179,-94 c -3,-69 -53,-70 -53,-1 0,39 1,41 28,38 24,-3 27,-7 25,-37 z"
         id="path64" />
      <path
         d="M 160,2345 C 32,2317 32,2317 37,2286 c 3,-15 9,-28 13,-31 7,-4 164,26 213,41 15,5 17,12 12,32 -3,15 -9,30 -13,33 -4,3 -50,-4 -102,-16 z"
         id="path74" />
      <path
         d="m 3150,2324 c -13,-33 -13,-35 6,-49 15,-10 15,-18 4,-64 -11,-45 -16,-53 -41,-58 -21,-4 -30,-13 -34,-35 -4,-16 -5,-31 -3,-33 7,-7 240,23 249,32 5,5 12,25 15,44 5,32 1,37 -85,112 -50,42 -93,77 -96,77 -3,0 -10,-12 -15,-26 z m 118,-155 c -16,-11 -55,-12 -61,-1 -3,4 -1,17 4,30 l 9,23 31,-22 c 23,-16 28,-24 17,-30 z"
         id="path76" />
      <path
         d="m 220,2175 c 0,-14 21,-38 64,-73 18,-15 21,-54 6,-82 -15,-29 -76,-37 -101,-14 -17,15 -20,27 -15,61 4,31 1,47 -12,63 l -17,22 -19,-21 c -40,-44 -12,-156 48,-192 55,-34 134,-18 170,33 34,49 13,156 -39,196 -33,26 -85,30 -85,7 z"
         id="path80" />
      <path
         d="m 2993,1935 c -49,-84 -51,-95 -24,-112 18,-11 23,-7 51,42 17,30 35,55 38,55 4,0 40,-17 80,-37 71,-37 73,-38 87,-19 8,11 15,25 15,32 0,11 -178,114 -197,114 -4,0 -27,-34 -50,-75 z"
         id="path98" />
      <path
         d="m 390,1876 c -19,-13 -61,-40 -93,-60 -52,-32 -56,-38 -47,-57 6,-11 17,-22 25,-25 15,-6 185,94 192,112 6,17 -15,54 -30,53 -7,0 -28,-11 -47,-23 z"
         id="path100" />
      <path
         d="m 2821,1693 c -64,-74 -64,-75 -44,-95 20,-19 20,-19 62,31 24,28 49,51 57,51 24,0 15,-31 -21,-71 -40,-45 -42,-54 -16,-69 16,-8 26,-3 59,35 22,25 45,45 51,45 21,0 11,-30 -25,-70 -36,-40 -42,-72 -13,-78 14,-3 139,131 139,148 0,9 -167,150 -177,149 -4,0 -37,-34 -72,-76 z"
         id="path102" />
      <path
         d="m 470,1730 c -28,-28 -25,-65 11,-128 23,-41 28,-57 19,-66 -14,-13 -60,35 -60,63 0,23 -35,55 -51,46 -7,-5 -9,-22 -6,-49 5,-32 16,-50 51,-83 50,-48 91,-56 119,-25 25,28 21,68 -14,128 -27,47 -28,55 -14,60 21,9 59,-28 60,-58 3,-59 49,-91 61,-43 10,42 -5,77 -55,127 -54,53 -88,61 -121,28 z"
         id="path104" />
      <path
         d="m 858,1339 c -18,-10 -24,-45 -10,-65 15,-22 42,-24 62,-4 25,25 25,42 2,63 -21,19 -30,20 -54,6 z"
         id="path106" />
      <path
         d="m 2506,1331 c -22,-24 -18,-49 9,-67 18,-12 24,-11 43,2 27,19 29,60 3,74 -27,14 -35,13 -55,-9 z"
         id="path108" />
      <path
         d="m 2113,1223 c -31,-6 -109,-158 -100,-195 l 7,-27 56,17 c 53,15 57,14 70,-2 15,-22 59,-18 59,5 0,9 6,23 13,31 15,18 6,46 -16,50 -9,2 -21,25 -31,62 -17,61 -21,66 -58,59 z m 6,-105 c 10,-27 -3,-48 -30,-48 -23,0 -23,-1 -3,38 18,38 22,39 33,10 z"
         id="path110" />
      <path
         d="m 1283,1197 c -41,-16 -46,-21 -38,-46 5,-16 12,-20 31,-15 29,7 29,2 8,-78 -8,-33 -13,-62 -11,-65 3,-2 17,-5 33,-6 28,-2 29,-1 56,103 29,112 28,120 -22,119 -14,0 -39,-6 -57,-12 z"
         id="path112" />
      <path
         d="m 1785,1165 c -32,-17 -45,-32 -45,-52 0,-18 46,-16 74,2 23,16 56,11 56,-7 0,-5 -14,-15 -30,-21 -43,-16 -38,-51 8,-55 25,-3 32,-8 30,-20 -4,-19 -68,-31 -68,-13 0,6 -16,11 -35,11 -42,0 -45,-17 -9,-51 20,-19 36,-24 75,-23 88,1 138,65 89,114 -16,16 -19,25 -11,33 16,16 13,62 -4,77 -24,20 -96,23 -130,5 z"
         id="path114" />
      <path
         d="m 1527,1108 c -52,-49 -68,-69 -67,-90 0,-26 3,-28 44,-28 57,0 76,-8 76,-31 0,-14 7,-19 30,-19 17,0 30,5 30,13 0,7 9,18 20,25 24,15 26,38 4,46 -12,5 -15,19 -12,73 l 3,68 -30,3 c -25,2 -42,-9 -98,-60 z m 63,-43 c 0,-28 -20,-41 -46,-31 -15,6 -14,10 6,31 30,32 40,32 40,0 z"
         id="path116" />
    </g>
  </g>
</svg>
