<?xml version="1.0" encoding="UTF-8" standalone="no"?>
<svg
   xmlns:dc="http://purl.org/dc/elements/1.1/"
   xmlns:cc="http://creativecommons.org/ns#"
   xmlns:rdf="http://www.w3.org/1999/02/22-rdf-syntax-ns#"
   xmlns:svg="http://www.w3.org/2000/svg"
   xmlns="http://www.w3.org/2000/svg"
   xmlns:sodipodi="http://sodipodi.sourceforge.net/DTD/sodipodi-0.dtd"
   xmlns:inkscape="http://www.inkscape.org/namespaces/inkscape"
   version="1.0"
   width="1000.000000pt"
   height="520.000000pt"
   viewBox="0 0 1000.000000 520.000000"
   preserveAspectRatio="xMidYMid meet"
   id="svg120"
   sodipodi:docname="LogoPrimario-1.svg"
   inkscape:version="1.0.2-2 (e86c870879, 2021-01-15)">
  <metadata
     id="metadata126">
    <rdf:RDF>
      <cc:Work
         rdf:about="">
        <dc:format>image/svg+xml</dc:format>
        <dc:type
           rdf:resource="http://purl.org/dc/dcmitype/StillImage" />
        <dc:title></dc:title>
      </cc:Work>
    </rdf:RDF>
  </metadata>
  <defs
     id="defs124" />
  <sodipodi:namedview
     pagecolor="#ffffff"
     bordercolor="#666666"
     borderopacity="1"
     objecttolerance="10"
     gridtolerance="10"
     guidetolerance="10"
     inkscape:pageopacity="0"
     inkscape:pageshadow="2"
     inkscape:window-width="2560"
     inkscape:window-height="1377"
     id="namedview122"
     showgrid="false"
     units="px"
     inkscape:zoom="0.94875"
     inkscape:cx="666.66667"
     inkscape:cy="346.66667"
     inkscape:window-x="-8"
     inkscape:window-y="-8"
     inkscape:window-maximized="1"
     inkscape:current-layer="g118" />
  <g
     transform="translate(0.000000,520.000000) scale(0.100000,-0.100000)"
     fill="#000000"
     stroke="none"
     id="g118">
    <path
       d="M1727 4363 c-3 -4 -6 -57 -8 -118 l-4 -110 32 -3 31 -3 7 63 c4 35 5 88 3 118 -3 51 -5 55 -30 58 -14 2 -28 0 -31 -5z"
       id="path2" />
    <path
       d="M1906 4352 c-2 -4 6 -58 19 -121 21 -106 33 -130 62 -131 6 0 18 -3 27 -6 11 -4 34 23 86 102 61 94 68 110 53 116 -44 17 -58 9 -96 -57 -21 -36 -42 -65 -46 -65 -10 0 -16 24 -27 103 -5 39 -11 50 -31 58 -30 11 -40 11 -47 1z"
       id="path4" />
    <path
       d="M1398 4341 c-26 -4 -49 -9 -52 -12 -5 -5 20 -193 29 -218 7 -19 117 -6 173 21 49 23 65 47 65 98 0 101 -61 132 -215 111z m126 -67 c21 -21 20 -67 -2 -87 -10 -9 -33 -18 -52 -19 -34 -3 -34 -2 -43 46 -4 27 -6 55 -3 63 7 18 81 17 100 -3z"
       id="path6" />
    <path
       d="M1177 4284 l-28 -15 7 -80 c4 -52 3 -79 -4 -79 -5 0 -34 27 -62 60 -43 49 -57 59 -74 54 -51 -16 -48 -23 36 -116 75 -82 85 -89 112 -84 53 11 56 18 56 152 0 68 -3 124 -7 124 -5 -1 -21 -8 -36 -16z"
       id="path8" />
    <path
       d="M2244 4174 c-50 -108 -52 -119 -25 -134 29 -15 30 -14 51 34 30 70 43 69 39 -4 -4 -55 -1 -64 17 -77 20 -13 25 -11 69 27 26 23 49 39 52 36 3 -2 -5 -26 -16 -52 -12 -26 -20 -48 -19 -49 15 -12 51 -25 55 -21 15 15 93 201 89 212 -3 7 -19 15 -36 19 -27 6 -37 1 -89 -44 -32 -28 -61 -48 -65 -44 -3 3 -6 41 -6 84 0 77 -1 79 -30 94 -16 8 -32 15 -35 15 -3 0 -26 -43 -51 -96z"
       id="path10" />
    <path
       d="M767 4084 c-97 -64 -110 -81 -82 -104 11 -9 20 -8 44 9 16 12 32 21 35 21 3 0 27 -31 52 -70 26 -38 52 -70 59 -70 7 0 20 9 29 19 17 19 16 22 -29 92 l-48 72 24 18 c13 10 27 19 32 19 12 0 8 37 -6 48 -10 9 -37 -4 -110 -54z"
       id="path12" />
    <path
       d="M545 3906 c-60 -26 -104 -99 -91 -150 12 -48 69 -50 133 -5 44 31 73 37 73 16 0 -20 -43 -57 -66 -57 -11 0 -31 -11 -44 -25 l-23 -24 28 -13 c23 -10 33 -9 72 12 79 42 118 126 78 170 -27 30 -66 24 -125 -16 -34 -23 -56 -32 -62 -26 -16 16 10 52 43 59 26 5 69 47 58 57 -14 12 -48 13 -74 2z"
       id="path14" />
    <path
       d="M2775 3892 c-88 -55 -83 -165 9 -235 57 -44 85 -44 125 -3 l34 35 -28 36 c-33 45 -52 53 -73 32 -14 -15 -14 -18 3 -37 10 -11 15 -23 12 -27 -13 -12 -56 16 -72 47 -14 27 -14 33 -1 59 16 31 34 41 71 41 26 0 65 -42 65 -71 0 -19 38 -51 52 -43 4 3 8 19 8 35 0 99 -128 180 -205 131z"
       id="path16" />
    <path
       d="M4307 3804 c-4 -4 -7 -157 -7 -340 0 -295 2 -339 18 -392 47 -149 165 -236 339 -249 174 -14 310 51 371 175 43 87 47 122 47 472 l0 335 -25 0 -25 0 -5 -355 c-5 -344 -6 -357 -28 -405 -46 -100 -134 -155 -247 -155 -113 0 -201 55 -247 155 -22 48 -23 61 -28 405 l-5 355 -75 3 c-42 1 -79 0 -83 -4z"
       id="path18" />
    <path
       d="M9546 3788 c11 -13 63 -72 114 -133 52 -60 99 -113 105 -117 21 -15 14 21 -29 142 l-44 125 -83 3 -83 3 20 -23z"
       id="path20" />
    <path
       d="M6004 3766 c-37 -37 -42 -62 -19 -106 18 -34 43 -50 80 -50 55 0 94 36 95 88 0 44 -14 68 -50 87 -44 23 -69 18 -106 -19z"
       id="path22" />
    <path
       d="M8698 3783 c-81 -50 -46 -173 49 -173 68 0 115 81 83 141 -12 22 -61 49 -87 49 -10 0 -30 -8 -45 -17z"
       id="path24" />
    <path
       d="M3003 3592 c-51 -31 -92 -62 -93 -69 0 -15 99 -173 109 -173 4 0 15 6 24 13 16 11 15 17 -18 69 -20 32 -34 62 -30 68 13 21 32 8 60 -40 16 -27 32 -50 35 -50 3 0 15 6 25 14 18 13 17 15 -14 65 -29 48 -33 71 -11 71 5 0 25 -25 45 -55 32 -50 37 -54 56 -45 13 8 18 17 14 28 -9 25 -98 162 -104 162 -3 -1 -47 -26 -98 -58z"
       id="path26" />
    <path
       d="M9097 3594 l-77 -55 0 -54 0 -55 -50 0 c-37 0 -50 -4 -50 -14 0 -11 14 -16 48 -18 l47 -3 5 -225 c6 -240 9 -258 62 -307 51 -48 167 -54 236 -13 37 23 98 103 82 108 -6 2 -28 -12 -50 -32 -24 -21 -50 -36 -66 -36 -33 0 -79 24 -89 47 -10 22 -19 404 -11 438 6 25 8 25 111 25 86 0 105 3 105 15 0 11 -21 15 -107 17 l-108 3 -2 103 c0 57 -3 105 -5 107 -1 2 -38 -21 -81 -51z"
       id="path28" />
    <path
       d="M214 3488 c-9 -18 -30 -57 -46 -87 -16 -29 -28 -54 -26 -56 12 -9 199 -105 206 -105 4 0 28 40 52 89 37 76 41 92 31 105 -21 25 -29 20 -61 -44 -28 -55 -46 -71 -63 -54 -3 4 7 33 23 65 29 56 29 59 11 69 -28 15 -28 15 -56 -39 -26 -53 -39 -66 -55 -56 -6 4 3 30 20 66 17 33 28 64 25 69 -13 21 -45 9 -61 -22z"
       id="path30" />
    <path
       d="M5514 3435 c-33 -16 -58 -38 -74 -65 -14 -22 -28 -40 -32 -40 -5 0 -8 23 -8 50 l0 51 -77 -3 -78 -3 0 -290 0 -290 77 -3 77 -3 3 237 3 236 38 33 c68 59 144 55 191 -8 20 -27 21 -43 24 -263 l3 -234 80 0 79 0 0 224 c0 249 -7 286 -62 344 -57 58 -160 69 -244 27z"
       id="path32" />
    <path
       d="M7092 3445 c-129 -40 -202 -137 -210 -281 -7 -121 14 -182 86 -254 47 -46 68 -59 118 -73 148 -41 283 4 348 116 48 83 44 135 -4 57 -41 -67 -90 -94 -177 -98 -66 -4 -78 -2 -113 22 -22 14 -49 44 -60 65 -21 42 -45 173 -36 197 4 12 41 14 212 14 l207 0 -7 43 c-9 55 -47 119 -91 153 -67 51 -182 68 -273 39z m168 -43 c28 -29 58 -130 45 -152 -4 -6 -58 -10 -131 -10 l-126 0 7 33 c23 103 70 157 137 157 30 0 46 -7 68 -28z"
       id="path34" />
    <path
       d="M7928 3451 c-61 -12 -125 -65 -150 -125 -13 -30 -13 -30 -18 34 l-5 65 -77 3 -78 3 0 -296 0 -296 78 3 77 3 3 221 2 222 38 18 c26 14 59 19 115 19 l78 0 -3 64 c-2 36 -7 65 -13 66 -5 2 -26 -1 -47 -4z"
       id="path36" />
    <path
       d="M8215 3450 c-58 -12 -111 -46 -136 -86 -18 -29 -21 -46 -17 -101 4 -62 7 -68 45 -104 31 -28 62 -44 128 -64 54 -17 99 -37 118 -55 28 -25 32 -35 32 -80 0 -46 -4 -55 -33 -81 -24 -21 -42 -29 -71 -29 -41 0 -36 -4 -124 105 -33 40 -73 47 -100 17 -26 -29 -21 -67 13 -95 46 -39 96 -52 200 -52 84 0 102 3 152 28 81 40 103 74 103 162 0 57 -4 76 -23 103 -28 38 -88 71 -189 101 -112 33 -155 107 -103 174 43 55 122 43 159 -24 41 -73 107 -90 133 -34 15 33 -11 71 -65 95 -50 22 -165 32 -222 20z"
       id="path38" />
    <path
       d="M9608 3449 c-20 -6 -55 -26 -77 -46 -35 -29 -41 -41 -41 -72 0 -24 7 -44 18 -54 19 -18 59 -22 79 -9 17 11 34 62 28 82 -17 53 47 98 108 77 41 -14 47 -34 47 -156 l0 -110 -37 -6 c-122 -20 -184 -38 -223 -66 -94 -68 -91 -191 6 -246 68 -39 165 -25 226 34 l27 26 33 -36 c41 -43 90 -55 150 -36 35 12 44 19 46 42 3 23 0 27 -22 27 -14 0 -28 6 -33 13 -4 6 -10 110 -13 229 -6 244 -9 254 -85 292 -46 23 -179 31 -237 15z m162 -411 c0 -57 -4 -108 -8 -114 -13 -19 -50 -34 -86 -34 -99 0 -102 165 -4 216 30 16 72 31 91 33 4 1 7 -45 7 -101z"
       id="path40" />
    <path
       d="M5990 3135 l0 -295 80 0 80 0 -2 293 -3 292 -77 3 -78 3 0 -296z"
       id="path42" />
    <path
       d="M6250 3423 c0 -4 55 -137 122 -296 l122 -288 44 3 c27 2 48 9 53 18 5 8 59 134 120 280 61 146 113 268 116 273 7 12 -27 21 -38 10 -6 -6 -49 -101 -97 -212 -48 -112 -91 -203 -96 -202 -5 0 -46 93 -92 208 l-82 208 -86 3 c-47 1 -86 -1 -86 -5z"
       id="path44" />
    <path
       d="M8670 3135 l0 -296 78 3 77 3 0 290 0 290 -77 3 -78 3 0 -296z"
       id="path46" />
    <path
       d="M821 3346 c-57 -83 -65 -201 -19 -293 36 -73 91 -113 245 -177 188 -80 266 -122 342 -183 36 -28 68 -50 72 -47 4 2 13 30 20 62 26 126 -14 255 -106 347 -31 31 -139 105 -282 193 -127 78 -234 142 -237 142 -3 0 -19 -20 -35 -44z"
       id="path48" />
    <path
       d="M3163 3313 c-104 -37 -113 -45 -93 -83 10 -18 11 -18 67 1 31 10 58 17 61 15 2 -3 -15 -36 -37 -74 -44 -76 -48 -89 -28 -116 12 -16 19 -15 112 19 55 20 103 39 108 44 4 4 3 20 -2 34 l-10 26 -57 -19 c-31 -11 -59 -20 -61 -20 -10 0 1 25 37 88 36 62 39 73 29 96 -7 14 -15 26 -18 25 -3 0 -52 -16 -108 -36z"
       id="path50" />
    <path
       d="M639 3165 c-158 -253 -53 -571 232 -705 36 -16 105 -42 154 -56 49 -14 101 -32 115 -39 38 -20 81 -66 97 -103 12 -30 17 -33 41 -27 80 19 140 91 149 178 15 142 -81 230 -382 357 -170 71 -208 93 -263 147 -62 61 -90 119 -106 217 l-12 71 -25 -40z"
       id="path52" />
    <path
       d="M1387 3184 c-3 -4 17 -28 46 -54 96 -88 147 -206 147 -340 0 -36 -12 -128 -26 -205 -22 -120 -24 -147 -14 -184 26 -97 124 -156 281 -168 l79 -6 35 -72 c83 -172 279 -271 473 -237 188 32 368 202 442 418 31 88 20 98 -23 22 -148 -264 -439 -353 -701 -215 -129 67 -310 287 -290 351 11 36 36 56 69 56 36 0 55 -18 137 -130 61 -84 143 -162 200 -191 33 -17 39 -18 44 -5 9 22 -13 178 -38 271 -102 383 -325 620 -641 680 -80 15 -208 20 -220 9z m554 -401 c8 -8 12 -30 10 -50 -3 -39 -111 30 -111 71 0 13 5 13 46 1 26 -8 50 -18 55 -22z"
       id="path54" />
    <path
       d="M172 3150 c-56 -9 -104 -19 -107 -21 -2 -3 -7 -23 -10 -44 -5 -39 -4 -41 47 -80 28 -22 72 -55 96 -74 36 -29 45 -32 53 -20 13 21 11 50 -5 68 -23 26 0 110 31 118 22 5 43 37 43 64 0 12 -24 10 -148 -11z m18 -84 c0 -34 -15 -40 -45 -19 -30 22 -31 30 -2 36 43 8 47 7 47 -17z"
       id="path56" />
    <path
       d="M3255 2958 c-44 -5 -84 -14 -89 -18 -5 -5 -3 -49 4 -104 l13 -96 28 0 c25 0 29 3 25 23 -16 75 -16 115 -2 120 20 8 27 -5 35 -67 5 -46 8 -51 31 -51 24 0 25 3 25 60 0 71 17 84 28 23 5 -24 11 -53 13 -65 4 -24 19 -29 41 -15 10 6 11 27 3 93 -6 46 -13 90 -15 97 -5 13 -25 14 -140 0z"
       id="path58" />
    <path
       d="M7 2833 c-4 -3 -7 -19 -7 -34 0 -30 7 -32 163 -45 l77 -7 0 27 c0 14 1 29 2 34 2 12 -224 37 -235 25z"
       id="path60" />
    <path
       d="M180 2601 l0 -68 -52 -7 c-29 -3 -70 -6 -90 -6 -36 0 -38 -2 -38 -30 0 -18 6 -33 15 -37 9 -3 64 -1 123 3 l107 9 -3 90 c-3 68 -8 93 -20 103 -34 26 -42 15 -42 -57z"
       id="path62" />
    <path
       d="M3184 2625 c-8 -32 1 -42 41 -47 24 -2 31 -8 33 -28 2 -22 -4 -29 -43 -48 -41 -20 -45 -25 -45 -57 0 -19 2 -35 5 -35 3 0 24 9 45 20 l40 20 20 -20 c15 -15 31 -20 57 -18 53 4 72 36 80 135 l6 81 -69 6 c-38 4 -90 9 -116 12 -45 4 -48 3 -54 -21z m179 -94 c-3 -69 -53 -70 -53 -1 0 39 1 41 28 38 24 -3 27 -7 25 -37z"
       id="path64" />
    <path
       d="M6040 2491 c-124 -17 -215 -59 -298 -135 -107 -100 -161 -248 -147 -406 18 -216 129 -360 331 -431 83 -29 263 -37 363 -15 76 16 200 68 213 89 11 18 10 195 -2 202 -5 3 -23 -23 -39 -59 -35 -77 -103 -149 -169 -177 -68 -30 -194 -37 -261 -14 -107 35 -185 126 -225 264 -25 85 -22 289 5 377 38 125 102 203 198 247 69 32 196 29 271 -5 76 -35 131 -86 169 -157 18 -34 36 -61 42 -61 5 0 9 44 9 100 l0 100 -39 20 c-98 49 -296 78 -421 61z"
       id="path66" />
    <path
       d="M4787 2474 c-11 -12 -9 -964 3 -965 6 0 37 0 70 0 33 0 65 0 70 0 7 1 9 164 8 484 l-3 482 -70 3 c-39 1 -74 0 -78 -4z"
       id="path68" />
    <path
       d="M5129 2434 c-16 -18 -24 -37 -24 -64 0 -56 35 -90 92 -90 59 0 93 33 93 90 0 57 -34 90 -93 90 -34 0 -49 -6 -68 -26z"
       id="path70" />
    <path
       d="M9175 2435 c-19 -18 -25 -35 -25 -65 0 -56 34 -90 89 -90 59 0 96 35 96 90 0 34 -6 47 -28 66 -39 33 -99 33 -132 -1z"
       id="path72" />
    <path
       d="M160 2345 c-128 -28 -128 -28 -123 -59 3 -15 9 -28 13 -31 7 -4 164 26 213 41 15 5 17 12 12 32 -3 15 -9 30 -13 33 -4 3 -50 -4 -102 -16z"
       id="path74" />
    <path
       d="M3150 2324 c-13 -33 -13 -35 6 -49 15 -10 15 -18 4 -64 -11 -45 -16 -53 -41 -58 -21 -4 -30 -13 -34 -35 -4 -16 -5 -31 -3 -33 7 -7 240 23 249 32 5 5 12 25 15 44 5 32 1 37 -85 112 -50 42 -93 77 -96 77 -3 0 -10 -12 -15 -26z m118 -155 c-16 -11 -55 -12 -61 -1 -3 4 -1 17 4 30 l9 23 31 -22 c23 -16 28 -24 17 -30z"
       id="path76" />
    <path
       d="M7380 2264 l-65 -45 -5 -57 -5 -57 -53 -3 c-44 -3 -53 -6 -50 -20 2 -12 17 -18 53 -22 l50 -5 5 -230 c4 -206 7 -233 25 -263 47 -78 196 -97 273 -35 43 35 88 96 73 101 -6 2 -23 -11 -38 -28 -22 -25 -39 -33 -75 -37 -95 -11 -112 46 -106 342 l3 150 105 5 c89 4 105 8 108 22 3 15 -9 18 -105 20 l-108 3 -3 103 c-1 56 -6 102 -10 102 -4 0 -36 -21 -72 -46z"
       id="path78" />
    <path
       d="M220 2175 c0 -14 21 -38 64 -73 18 -15 21 -54 6 -82 -15 -29 -76 -37 -101 -14 -17 15 -20 27 -15 61 4 31 1 47 -12 63 l-17 22 -19 -21 c-40 -44 -12 -156 48 -192 55 -34 134 -18 170 33 34 49 13 156 -39 196 -33 26 -85 30 -85 7z"
       id="path80" />
    <path
       d="M4494 2114 c-64 -23 -119 -77 -156 -151 -29 -59 -33 -77 -33 -148 0 -101 23 -168 77 -230 52 -59 107 -86 185 -93 73 -6 136 14 173 53 28 30 23 39 -14 25 -61 -23 -130 -8 -180 38 -48 46 -69 106 -69 202 -1 73 3 92 26 137 15 28 43 64 62 79 46 35 118 43 164 19 31 -16 33 -15 29 1 -2 10 -22 32 -46 48 -36 25 -54 31 -110 33 -41 1 -83 -3 -108 -13z"
       id="path82" />
    <path
       d="M6754 2110 c-67 -26 -106 -68 -107 -113 -1 -46 17 -67 59 -67 46 0 64 22 64 81 0 63 23 89 79 89 31 0 44 -6 60 -26 18 -23 21 -41 21 -139 l0 -112 -70 -7 c-77 -7 -164 -36 -204 -67 -100 -79 -59 -235 67 -256 64 -10 121 5 167 45 32 27 45 33 48 22 9 -25 54 -59 88 -66 67 -12 138 17 165 68 14 27 7 31 -26 14 -28 -15 -54 -11 -67 8 -4 6 -8 101 -8 211 -1 243 -9 272 -87 307 -69 31 -182 34 -249 8z m176 -402 c0 -57 -4 -108 -8 -114 -13 -20 -50 -34 -90 -34 -49 0 -72 29 -72 93 0 63 32 107 100 134 30 12 58 23 63 23 4 0 7 -46 7 -102z"
       id="path84" />
    <path
       d="M7880 2111 c-68 -24 -110 -68 -110 -115 0 -40 26 -66 67 -66 40 0 57 22 59 79 2 59 1 57 20 75 22 23 89 21 113 -3 26 -26 33 -67 29 -171 l-3 -85 -73 -8 c-143 -15 -229 -65 -253 -145 -11 -38 -10 -48 7 -89 25 -60 60 -85 127 -91 68 -5 118 11 158 51 l31 31 21 -28 c23 -32 72 -56 114 -56 40 0 108 37 121 66 16 35 16 35 -22 19 -28 -12 -36 -12 -52 0 -17 12 -19 33 -24 233 -5 204 -7 223 -26 249 -49 66 -196 92 -304 54z m178 -404 c3 -92 1 -98 -22 -122 -37 -37 -106 -36 -136 3 -33 41 -24 112 20 157 31 32 102 67 125 61 6 -2 11 -46 13 -99z"
       id="path86" />
    <path
       d="M8689 2103 c-31 -16 -63 -42 -76 -62 -33 -49 -28 -58 12 -23 63 56 133 51 179 -11 20 -27 21 -43 24 -260 2 -127 7 -234 12 -237 4 -3 40 -4 79 -2 l71 4 0 221 c0 122 -5 239 -10 259 -33 119 -171 171 -291 111z"
       id="path88" />
    <path
       d="M9601 2111 c-72 -25 -113 -67 -113 -115 0 -49 16 -66 63 -66 46 0 59 18 59 84 0 59 25 86 79 86 31 0 44 -6 60 -26 18 -23 21 -41 21 -139 l0 -112 -70 -7 c-77 -7 -164 -36 -204 -67 -100 -79 -59 -235 67 -256 64 -10 121 5 166 44 23 19 43 34 45 32 2 -2 8 -14 14 -25 14 -27 70 -54 111 -54 53 0 101 25 101 53 0 20 -5 25 -26 25 -15 0 -30 6 -35 13 -5 8 -9 104 -9 214 -1 243 -9 272 -87 307 -68 30 -172 34 -242 9z m169 -403 c0 -57 -4 -108 -8 -114 -13 -19 -50 -34 -86 -34 -50 0 -76 31 -76 90 0 67 31 109 100 137 30 12 58 23 63 23 4 0 7 -46 7 -102z"
       id="path90" />
    <path
       d="M5120 1807 c0 -161 2 -296 4 -298 2 -2 38 -3 80 -1 l76 4 -2 291 -3 292 -77 3 -78 3 0 -294z"
       id="path92" />
    <path
       d="M8420 1807 c0 -161 2 -296 4 -298 2 -2 37 -2 78 1 l73 5 0 290 0 290 -77 3 -78 3 0 -294z"
       id="path94" />
    <path
       d="M9160 1805 c0 -190 4 -295 10 -296 6 0 37 0 70 0 33 0 65 0 70 0 6 1 10 106 10 296 l0 295 -80 0 -80 0 0 -295z"
       id="path96" />
    <path
       d="M2993 1935 c-49 -84 -51 -95 -24 -112 18 -11 23 -7 51 42 17 30 35 55 38 55 4 0 40 -17 80 -37 71 -37 73 -38 87 -19 8 11 15 25 15 32 0 11 -178 114 -197 114 -4 0 -27 -34 -50 -75z"
       id="path98" />
    <path
       d="M390 1876 c-19 -13 -61 -40 -93 -60 -52 -32 -56 -38 -47 -57 6 -11 17 -22 25 -25 15 -6 185 94 192 112 6 17 -15 54 -30 53 -7 0 -28 -11 -47 -23z"
       id="path100" />
    <path
       d="M2821 1693 c-64 -74 -64 -75 -44 -95 20 -19 20 -19 62 31 24 28 49 51 57 51 24 0 15 -31 -21 -71 -40 -45 -42 -54 -16 -69 16 -8 26 -3 59 35 22 25 45 45 51 45 21 0 11 -30 -25 -70 -36 -40 -42 -72 -13 -78 14 -3 139 131 139 148 0 9 -167 150 -177 149 -4 0 -37 -34 -72 -76z"
       id="path102" />
    <path
       d="M470 1730 c-28 -28 -25 -65 11 -128 23 -41 28 -57 19 -66 -14 -13 -60 35 -60 63 0 23 -35 55 -51 46 -7 -5 -9 -22 -6 -49 5 -32 16 -50 51 -83 50 -48 91 -56 119 -25 25 28 21 68 -14 128 -27 47 -28 55 -14 60 21 9 59 -28 60 -58 3 -59 49 -91 61 -43 10 42 -5 77 -55 127 -54 53 -88 61 -121 28z"
       id="path104" />
    <path
       d="M858 1339 c-18 -10 -24 -45 -10 -65 15 -22 42 -24 62 -4 25 25 25 42 2 63 -21 19 -30 20 -54 6z"
       id="path106" />
    <path
       d="M2506 1331 c-22 -24 -18 -49 9 -67 18 -12 24 -11 43 2 27 19 29 60 3 74 -27 14 -35 13 -55 -9z"
       id="path108" />
    <path
       d="M2113 1223 c-31 -6 -109 -158 -100 -195 l7 -27 56 17 c53 15 57 14 70 -2 15 -22 59 -18 59 5 0 9 6 23 13 31 15 18 6 46 -16 50 -9 2 -21 25 -31 62 -17 61 -21 66 -58 59z m6 -105 c10 -27 -3 -48 -30 -48 -23 0 -23 -1 -3 38 18 38 22 39 33 10z"
       id="path110" />
    <path
       d="M1283 1197 c-41 -16 -46 -21 -38 -46 5 -16 12 -20 31 -15 29 7 29 2 8 -78 -8 -33 -13 -62 -11 -65 3 -2 17 -5 33 -6 28 -2 29 -1 56 103 29 112 28 120 -22 119 -14 0 -39 -6 -57 -12z"
       id="path112" />
    <path
       d="M1785 1165 c-32 -17 -45 -32 -45 -52 0 -18 46 -16 74 2 23 16 56 11 56 -7 0 -5 -14 -15 -30 -21 -43 -16 -38 -51 8 -55 25 -3 32 -8 30 -20 -4 -19 -68 -31 -68 -13 0 6 -16 11 -35 11 -42 0 -45 -17 -9 -51 20 -19 36 -24 75 -23 88 1 138 65 89 114 -16 16 -19 25 -11 33 16 16 13 62 -4 77 -24 20 -96 23 -130 5z"
       id="path114" />
    <path
       d="M1527 1108 c-52 -49 -68 -69 -67 -90 0 -26 3 -28 44 -28 57 0 76 -8 76 -31 0 -14 7 -19 30 -19 17 0 30 5 30 13 0 7 9 18 20 25 24 15 26 38 4 46 -12 5 -15 19 -12 73 l3 68 -30 3 c-25 2 -42 -9 -98 -60z m63 -43 c0 -28 -20 -41 -46 -31 -15 6 -14 10 6 31 30 32 40 32 40 0z"
       id="path116" />
  </g>
</svg>
